<?xml version="1.0" encoding="UTF-8" standalone="no"?>
<!-- Created with Inkscape (http://www.inkscape.org/) -->

<svg
   version="1.1"
   id="svg2"
   width="160"
   height="160"
   viewBox="0 0 160 160"
   sodipodi:docname="GitHub-Mark.svg"
   inkscape:version="1.2.1 (9c6d41e410, 2022-07-14)"
   xmlns:inkscape="http://www.inkscape.org/namespaces/inkscape"
   xmlns:sodipodi="http://sodipodi.sourceforge.net/DTD/sodipodi-0.dtd"
   xmlns="http://www.w3.org/2000/svg"
   xmlns:svg="http://www.w3.org/2000/svg">
  <defs
     id="defs6">
    <clipPath
       clipPathUnits="userSpaceOnUse"
       id="clipPath1112">
      <g
         id="g1116"
         transform="matrix(1.006782,0,0,1.006782,-45.002299,-456.41959)">
        <path
           d="M -288.26579,608.5237 H 239.13042 V 60.256039 h -527.39621 z"
           id="path1114"
           style="stroke-width:0.993264" />
      </g>
    </clipPath>
    <clipPath
       clipPathUnits="userSpaceOnUse"
       id="clipPath1118">
      <g
         id="g1122"
         transform="matrix(1.006782,0,0,1.006782,-40.403698,-455.63729)">
        <path
           d="M -288.26579,608.5237 H 239.13042 V 60.256039 h -527.39621 z"
           id="path1120"
           style="stroke-width:0.993264" />
      </g>
    </clipPath>
    <clipPath
       clipPathUnits="userSpaceOnUse"
       id="clipPath1124">
      <g
         id="g1128"
         transform="matrix(1.006782,0,0,1.006782,-35.461299,-455.99869)">
        <path
           d="M -288.26579,608.5237 H 239.13042 V 60.256039 h -527.39621 z"
           id="path1126"
           style="stroke-width:0.993264" />
      </g>
    </clipPath>
    <clipPath
       clipPathUnits="userSpaceOnUse"
       id="clipPath1130">
      <g
         id="g1134"
         transform="matrix(1.006782,0,0,1.006782,-30.961298,-457.94979)">
        <path
           d="M -288.26579,608.5237 H 239.13042 V 60.256039 h -527.39621 z"
           id="path1132"
           style="stroke-width:0.993264" />
      </g>
    </clipPath>
    <clipPath
       clipPathUnits="userSpaceOnUse"
       id="clipPath1136">
      <g
         id="g1140"
         transform="matrix(1.006782,0,0,1.006782,-27.699599,-461.31019)">
        <path
           d="M -288.26579,608.5237 H 239.13042 V 60.256039 h -527.39621 z"
           id="path1138"
           style="stroke-width:0.993264" />
      </g>
    </clipPath>
    <clipPath
       clipPathUnits="userSpaceOnUse"
       id="clipPath1142">
      <g
         id="g1146"
         transform="matrix(1.006782,0,0,1.006782,-25.318698,-464.78769)">
        <path
           d="M -288.26579,608.5237 H 239.13042 V 60.256039 h -527.39621 z"
           id="path1144"
           style="stroke-width:0.993264" />
      </g>
    </clipPath>
    <clipPath
       clipPathUnits="userSpaceOnUse"
       id="clipPath1148">
      <g
         id="g1152"
         transform="matrix(1.006782,0,0,1.006782,-22.872398,-467.51619)">
        <path
           d="M -288.26579,608.5237 H 239.13042 V 60.256039 h -527.39621 z"
           id="path1150"
           style="stroke-width:0.993264" />
      </g>
    </clipPath>
    <clipPath
       clipPathUnits="userSpaceOnUse"
       id="clipPath1154">
      <g
         id="g1158"
         transform="matrix(1.006782,0,0,1.006782,-60.387998,-554.21939)">
        <path
           d="M -288.26579,608.5237 H 239.13042 V 60.256039 h -527.39621 z"
           id="path1156"
           style="stroke-width:0.993264" />
      </g>
    </clipPath>
  </defs>
  <sodipodi:namedview
     id="namedview4"
     pagecolor="#000000"
     bordercolor="#000000"
     borderopacity="1"
     inkscape:showpageshadow="2"
     inkscape:pageopacity="0"
     inkscape:pagecheckerboard="0"
     inkscape:deskcolor="#d1d1d1"
     showgrid="false"
     inkscape:zoom="3.0283385"
     inkscape:cx="-31.20523"
     inkscape:cy="93.120369"
     inkscape:window-width="1920"
     inkscape:window-height="986"
     inkscape:window-x="-11"
     inkscape:window-y="-11"
     inkscape:window-maximized="1"
     inkscape:current-layer="g10">
    <inkscape:page
       x="0"
       y="0"
       id="page8"
       width="160"
       height="160" />
  </sodipodi:namedview>
  <g
     id="g10"
     inkscape:groupmode="layer"
     inkscape:label="Page 1"
     transform="matrix(1.3333333,0,0,-1.3333333,0,735.98133)">
    <g
       id="g290"
       style="fill:#ffffff;fill-opacity:0.96470588">
      <g
         id="g26"
         transform="matrix(0.99326371,0,0,0.99326371,59.981207,550.48601)"
         clip-path="url(#clipPath1154)"
         style="fill:#ffffff;fill-opacity:0.96470588">
        <path
           d="m 0,0 c -33.347,0 -60.388,-27.035 -60.388,-60.388 0,-26.68 17.303,-49.316 41.297,-57.301 3.018,-0.559 4.126,1.31 4.126,2.905 0,1.439 -0.056,6.197 -0.082,11.243 -16.8,-3.653 -20.345,7.125 -20.345,7.125 -2.747,6.979 -6.705,8.836 -6.705,8.836 -5.479,3.748 0.413,3.671 0.413,3.671 6.064,-0.426 9.257,-6.224 9.257,-6.224 5.386,-9.231 14.127,-6.562 17.573,-5.019 0.543,3.902 2.107,6.567 3.834,8.075 -13.413,1.526 -27.513,6.705 -27.513,29.844 0,6.592 2.359,11.98 6.222,16.209 -0.627,1.521 -2.694,7.663 0.586,15.981 0,0 5.071,1.622 16.61,-6.191 4.817,1.338 9.983,2.009 15.115,2.033 5.132,-0.024 10.302,-0.695 15.128,-2.033 11.526,7.813 16.59,6.191 16.59,6.191 3.287,-8.318 1.22,-14.46 0.593,-15.981 3.872,-4.229 6.214,-9.617 6.214,-16.209 0,-23.195 -14.127,-28.301 -27.574,-29.796 2.166,-1.874 4.096,-5.549 4.096,-11.183 0,-8.08 -0.069,-14.583 -0.069,-16.572 0,-1.608 1.086,-3.49 4.147,-2.898 23.982,7.994 41.263,30.622 41.263,57.294 C 60.388,-27.035 33.351,0 0,0"
           style="fill:#ffffff;fill-opacity:0.96470588;fill-rule:evenodd;stroke:none"
           id="path28" />
      </g>
      <g
         id="g30"
         transform="matrix(0.99326371,0,0,0.99326371,22.718323,464.36687)"
         clip-path="url(#clipPath1148)"
         style="fill:#ffffff;fill-opacity:0.96470588">
        <path
           d="m 0,0 c -0.133,-0.301 -0.605,-0.391 -1.035,-0.185 -0.439,0.198 -0.684,0.607 -0.542,0.908 0.13,0.308 0.602,0.394 1.04,0.188 C -0.099,0.714 0.151,0.301 0,0"
           style="fill:#ffffff;fill-opacity:0.96470588;fill-rule:nonzero;stroke:none"
           id="path32" />
      </g>
      <g
         id="g34"
         transform="matrix(0.99326371,0,0,0.99326371,25.148144,461.65675)"
         clip-path="url(#clipPath1142)"
         style="fill:#ffffff;fill-opacity:0.96470588">
        <path
           d="M 0,0 C -0.288,-0.267 -0.852,-0.143 -1.233,0.279 -1.629,0.7 -1.702,1.264 -1.41,1.534 -1.113,1.801 -0.567,1.676 -0.172,1.255 0.224,0.829 0.301,0.271 0,0"
           style="fill:#ffffff;fill-opacity:0.96470588;fill-rule:nonzero;stroke:none"
           id="path36" />
      </g>
      <g
         id="g38"
         transform="matrix(0.99326371,0,0,0.99326371,27.513006,458.20267)"
         clip-path="url(#clipPath1136)"
         style="fill:#ffffff;fill-opacity:0.96470588">
        <path
           d="M 0,0 C -0.37,-0.258 -0.976,-0.017 -1.35,0.52 -1.72,1.058 -1.72,1.702 -1.341,1.96 -0.967,2.218 -0.37,1.985 0.009,1.453 0.378,0.907 0.378,0.263 0,0"
           style="fill:#ffffff;fill-opacity:0.96470588;fill-rule:nonzero;stroke:none"
           id="path40" />
      </g>
      <g
         id="g42"
         transform="matrix(0.99326371,0,0,0.99326371,30.752734,454.86491)"
         clip-path="url(#clipPath1130)"
         style="fill:#ffffff;fill-opacity:0.96470588">
        <path
           d="M 0,0 C -0.331,-0.365 -1.036,-0.267 -1.552,0.232 -2.08,0.718 -2.227,1.409 -1.896,1.774 -1.56,2.14 -0.851,2.037 -0.331,1.543 0.193,1.057 0.352,0.361 0,0"
           style="fill:#ffffff;fill-opacity:0.96470588;fill-rule:nonzero;stroke:none"
           id="path44" />
      </g>
      <g
         id="g46"
         transform="matrix(0.99326371,0,0,0.99326371,35.222421,452.92695)"
         clip-path="url(#clipPath1124)"
         style="fill:#ffffff;fill-opacity:0.96470588">
        <path
           d="m 0,0 c -0.147,-0.473 -0.825,-0.687 -1.509,-0.486 -0.683,0.207 -1.13,0.76 -0.992,1.238 0.142,0.476 0.824,0.7 1.513,0.485 C -0.306,1.031 0.142,0.481 0,0"
           style="fill:#ffffff;fill-opacity:0.96470588;fill-rule:nonzero;stroke:none"
           id="path48" />
      </g>
      <g
         id="g50"
         transform="matrix(0.99326371,0,0,0.99326371,40.131527,452.56799)"
         clip-path="url(#clipPath1118)"
         style="fill:#ffffff;fill-opacity:0.96470588">
        <path
           d="m 0,0 c 0.017,-0.498 -0.563,-0.911 -1.281,-0.92 -0.722,-0.016 -1.307,0.387 -1.315,0.877 0,0.503 0.568,0.911 1.289,0.924 C -0.589,0.895 0,0.494 0,0"
           style="fill:#ffffff;fill-opacity:0.96470588;fill-rule:nonzero;stroke:none"
           id="path52" />
      </g>
      <g
         id="g54"
         transform="matrix(0.99326371,0,0,0.99326371,44.69915,453.34502)"
         clip-path="url(#clipPath1112)"
         style="fill:#ffffff;fill-opacity:0.96470588">
        <path
           d="m 0,0 c 0.086,-0.485 -0.413,-0.984 -1.126,-1.117 -0.701,-0.129 -1.35,0.172 -1.439,0.653 -0.087,0.498 0.42,0.997 1.121,1.126 C -0.73,0.786 -0.091,0.494 0,0"
           style="fill:#ffffff;fill-opacity:0.96470588;fill-rule:nonzero;stroke:none"
           id="path56" />
      </g>
    </g>
  </g>
</svg>
